<?xml version="1.0" encoding="UTF-8" standalone="no"?>
<!DOCTYPE svg PUBLIC "-//W3C//DTD SVG 1.1//EN"
 "http://www.w3.org/Graphics/SVG/1.1/DTD/svg11.dtd">
<!-- Generated by graphviz version 2.47.0 (20210316.0004)
 -->
<!-- Title: dependencies Pages: 1 -->
<svg width="504pt" height="211pt"
 viewBox="0.00 0.00 504.00 211.00" xmlns="http://www.w3.org/2000/svg" xmlns:xlink="http://www.w3.org/1999/xlink">
<g id="graph0" class="graph" transform="scale(1 1) rotate(0) translate(4 207)">
<title>dependencies</title>
<polygon fill="white" stroke="transparent" points="-4,4 -4,-207 500,-207 500,4 -4,4"/>
<text text-anchor="start" x="227.01" y="-42.4" font-family="Times-12" font-weight="bold" font-size="14.00">Legend</text>
<polygon fill="#ffffb3" stroke="transparent" points="14,-10 14,-30 34,-30 34,-10 14,-10"/>
<text text-anchor="start" x="37.63" y="-15.4" font-family="Times-12" font-size="14.00"> &#160;Declarations</text>
<polygon fill="#8dd3c7" stroke="transparent" points="127,-10 127,-30 147,-30 147,-10 127,-10"/>
<text text-anchor="start" x="150.73" y="-15.4" font-family="Times-12" font-size="14.00"> &#160;Module</text>
<polygon fill="#80b1d3" stroke="transparent" points="213,-10 213,-30 233,-30 233,-10 213,-10"/>
<text text-anchor="start" x="236.78" y="-15.4" font-family="Times-12" font-size="14.00"> &#160;Bootstrap</text>
<polygon fill="#fdb462" stroke="transparent" points="310,-10 310,-30 330,-30 330,-10 310,-10"/>
<text text-anchor="start" x="333.67" y="-15.4" font-family="Times-12" font-size="14.00"> &#160;Providers</text>
<polygon fill="#fb8072" stroke="transparent" points="406,-10 406,-30 426,-30 426,-10 406,-10"/>
<text text-anchor="start" x="429.73" y="-15.4" font-family="Times-12" font-size="14.00"> &#160;Exports</text>
<g id="clust1" class="cluster">
<title>cluster_SettingsModule</title>
<polygon fill="none" stroke="black" stroke-dasharray="1,5" points="57,-70 57,-195 439,-195 439,-70 57,-70"/>
</g>
<g id="clust2" class="cluster">
<title>cluster_SettingsModule_declarations</title>
<polygon fill="none" stroke="black" points="239,-78 239,-130 431,-130 431,-78 239,-78"/>
</g>
<g id="clust4" class="cluster">
<title>cluster_SettingsModule_imports</title>
<polygon fill="none" stroke="black" points="65,-78 65,-130 231,-130 231,-78 65,-78"/>
</g>
<!-- ChangepasswordComponent -->
<g id="node1" class="node">
<title>ChangepasswordComponent</title>
<polygon fill="#ffffb3" stroke="black" points="423.47,-122 246.53,-122 246.53,-86 423.47,-86 423.47,-122"/>
<text text-anchor="middle" x="335" y="-99.8" font-family="Times,serif" font-size="14.00">ChangepasswordComponent</text>
</g>
<!-- SettingsModule -->
<g id="node2" class="node">
<title>SettingsModule</title>
<polygon fill="#8dd3c7" stroke="black" points="293.16,-187 290.16,-191 269.16,-191 266.16,-187 188.84,-187 188.84,-151 293.16,-151 293.16,-187"/>
<text text-anchor="middle" x="241" y="-164.8" font-family="Times,serif" font-size="14.00">SettingsModule</text>
</g>
<!-- ChangepasswordComponent&#45;&gt;SettingsModule -->
<g id="edge1" class="edge">
<title>ChangepasswordComponent&#45;&gt;SettingsModule</title>
<path fill="none" stroke="black" d="M269.92,-122.11C269.92,-122.11 269.92,-140.99 269.92,-140.99"/>
<polygon fill="black" stroke="black" points="266.42,-140.99 269.92,-150.99 273.42,-140.99 266.42,-140.99"/>
</g>
<!-- SettingsRoutingModule -->
<g id="node3" class="node">
<title>SettingsRoutingModule</title>
<polygon fill="#8dd3c7" stroke="black" points="222.78,-122 219.78,-126 198.78,-126 195.78,-122 73.22,-122 73.22,-86 222.78,-86 222.78,-122"/>
<text text-anchor="middle" x="148" y="-99.8" font-family="Times,serif" font-size="14.00">SettingsRoutingModule</text>
</g>
<!-- SettingsRoutingModule&#45;&gt;SettingsModule -->
<g id="edge2" class="edge">
<title>SettingsRoutingModule&#45;&gt;SettingsModule</title>
<path fill="none" stroke="black" d="M205.78,-122.11C205.78,-122.11 205.78,-140.99 205.78,-140.99"/>
<polygon fill="black" stroke="black" points="202.28,-140.99 205.78,-150.99 209.28,-140.99 202.28,-140.99"/>
</g>
</g>
</svg>
