<?xml version="1.0" encoding="UTF-8" standalone="no"?>
<!DOCTYPE svg PUBLIC "-//W3C//DTD SVG 1.1//EN"
 "http://www.w3.org/Graphics/SVG/1.1/DTD/svg11.dtd">
<!-- Generated by graphviz version 2.47.0 (20210316.0004)
 -->
<!-- Title: dependencies Pages: 1 -->
<svg width="3797pt" height="284pt"
 viewBox="0.00 0.00 3797.00 284.00" xmlns="http://www.w3.org/2000/svg" xmlns:xlink="http://www.w3.org/1999/xlink">
<g id="graph0" class="graph" transform="scale(1 1) rotate(0) translate(4 280)">
<title>dependencies</title>
<polygon fill="white" stroke="transparent" points="-4,4 -4,-280 3793,-280 3793,4 -4,4"/>
<text text-anchor="start" x="1873.51" y="-42.4" font-family="Times-12" font-weight="bold" font-size="14.00">Legend</text>
<polygon fill="#ffffb3" stroke="transparent" points="1660.5,-10 1660.5,-30 1680.5,-30 1680.5,-10 1660.5,-10"/>
<text text-anchor="start" x="1684.13" y="-15.4" font-family="Times-12" font-size="14.00"> &#160;Declarations</text>
<polygon fill="#8dd3c7" stroke="transparent" points="1773.5,-10 1773.5,-30 1793.5,-30 1793.5,-10 1773.5,-10"/>
<text text-anchor="start" x="1797.23" y="-15.4" font-family="Times-12" font-size="14.00"> &#160;Module</text>
<polygon fill="#80b1d3" stroke="transparent" points="1859.5,-10 1859.5,-30 1879.5,-30 1879.5,-10 1859.5,-10"/>
<text text-anchor="start" x="1883.28" y="-15.4" font-family="Times-12" font-size="14.00"> &#160;Bootstrap</text>
<polygon fill="#fdb462" stroke="transparent" points="1956.5,-10 1956.5,-30 1976.5,-30 1976.5,-10 1956.5,-10"/>
<text text-anchor="start" x="1980.17" y="-15.4" font-family="Times-12" font-size="14.00"> &#160;Providers</text>
<polygon fill="#fb8072" stroke="transparent" points="2052.5,-10 2052.5,-30 2072.5,-30 2072.5,-10 2052.5,-10"/>
<text text-anchor="start" x="2076.23" y="-15.4" font-family="Times-12" font-size="14.00"> &#160;Exports</text>
<g id="clust1" class="cluster">
<title>cluster_AppModule</title>
<polygon fill="none" stroke="black" stroke-dasharray="1,5" points="8,-70 8,-268 3781,-268 3781,-70 8,-70"/>
</g>
<g id="clust2" class="cluster">
<title>cluster_AppModule_declarations</title>
<polygon fill="none" stroke="black" points="568,-78 568,-130 3773,-130 3773,-78 568,-78"/>
</g>
<g id="clust25" class="cluster">
<title>cluster_AppModule_imports</title>
<polygon fill="none" stroke="black" points="416,-78 416,-130 560,-130 560,-78 416,-78"/>
</g>
<g id="clust27" class="cluster">
<title>cluster_AppModule_bootstrap</title>
<polygon fill="none" stroke="black" points="1906,-208 1906,-260 2030,-260 2030,-208 1906,-208"/>
</g>
<g id="clust28" class="cluster">
<title>cluster_AppModule_providers</title>
<polygon fill="none" stroke="black" points="16,-78 16,-130 408,-130 408,-78 16,-78"/>
</g>
<!-- AddTitlePipe -->
<g id="node1" class="node">
<title>AddTitlePipe</title>
<polygon fill="#ffffb3" stroke="black" points="3764.93,-122 3673.07,-122 3673.07,-86 3764.93,-86 3764.93,-122"/>
<text text-anchor="middle" x="3719" y="-99.8" font-family="Times,serif" font-size="14.00">AddTitlePipe</text>
</g>
<!-- AppModule -->
<g id="node23" class="node">
<title>AppModule</title>
<polygon fill="#8dd3c7" stroke="black" points="2009.66,-187 2006.66,-191 1985.66,-191 1982.66,-187 1926.34,-187 1926.34,-151 2009.66,-151 2009.66,-187"/>
<text text-anchor="middle" x="1968" y="-164.8" font-family="Times,serif" font-size="14.00">AppModule</text>
</g>
<!-- AddTitlePipe&#45;&gt;AppModule -->
<g id="edge1" class="edge">
<title>AddTitlePipe&#45;&gt;AppModule</title>
<path fill="none" stroke="black" d="M3719,-122.38C3719,-146.28 3719,-185 3719,-185 3719,-185 2019.99,-185 2019.99,-185"/>
<polygon fill="black" stroke="black" points="2019.99,-181.5 2009.99,-185 2019.99,-188.5 2019.99,-181.5"/>
</g>
<!-- AllOrdersComponent -->
<g id="node2" class="node">
<title>AllOrdersComponent</title>
<polygon fill="#ffffb3" stroke="black" points="3655.81,-122 3518.19,-122 3518.19,-86 3655.81,-86 3655.81,-122"/>
<text text-anchor="middle" x="3587" y="-99.8" font-family="Times,serif" font-size="14.00">AllOrdersComponent</text>
</g>
<!-- AllOrdersComponent&#45;&gt;AppModule -->
<g id="edge2" class="edge">
<title>AllOrdersComponent&#45;&gt;AppModule</title>
<path fill="none" stroke="black" d="M3587,-122.09C3587,-145.13 3587,-182 3587,-182 3587,-182 2020.06,-182 2020.06,-182"/>
<polygon fill="black" stroke="black" points="2020.06,-178.5 2010.06,-182 2020.06,-185.5 2020.06,-178.5"/>
</g>
<!-- AppComponent -->
<g id="node3" class="node">
<title>AppComponent</title>
<polygon fill="#ffffb3" stroke="black" points="3500.94,-122 3395.06,-122 3395.06,-86 3500.94,-86 3500.94,-122"/>
<text text-anchor="middle" x="3448" y="-99.8" font-family="Times,serif" font-size="14.00">AppComponent</text>
</g>
<!-- AppComponent&#45;&gt;AppModule -->
<g id="edge3" class="edge">
<title>AppComponent&#45;&gt;AppModule</title>
<path fill="none" stroke="black" d="M3448,-122.16C3448,-144.35 3448,-179 3448,-179 3448,-179 2019.91,-179 2019.91,-179"/>
<polygon fill="black" stroke="black" points="2019.91,-175.5 2009.91,-179 2019.91,-182.5 2019.91,-175.5"/>
</g>
<!-- BrandsComponent -->
<g id="node4" class="node">
<title>BrandsComponent</title>
<polygon fill="#ffffb3" stroke="black" points="3377.49,-122 3256.51,-122 3256.51,-86 3377.49,-86 3377.49,-122"/>
<text text-anchor="middle" x="3317" y="-99.8" font-family="Times,serif" font-size="14.00">BrandsComponent</text>
</g>
<!-- BrandsComponent&#45;&gt;AppModule -->
<g id="edge4" class="edge">
<title>BrandsComponent&#45;&gt;AppModule</title>
<path fill="none" stroke="black" d="M3317,-122.17C3317,-143.5 3317,-176 3317,-176 3317,-176 2019.85,-176 2019.85,-176"/>
<polygon fill="black" stroke="black" points="2019.85,-172.5 2009.85,-176 2019.85,-179.5 2019.85,-172.5"/>
</g>
<!-- CategoriesComponent -->
<g id="node5" class="node">
<title>CategoriesComponent</title>
<polygon fill="#ffffb3" stroke="black" points="3238.7,-122 3097.3,-122 3097.3,-86 3238.7,-86 3238.7,-122"/>
<text text-anchor="middle" x="3168" y="-99.8" font-family="Times,serif" font-size="14.00">CategoriesComponent</text>
</g>
<!-- CategoriesComponent&#45;&gt;AppModule -->
<g id="edge5" class="edge">
<title>CategoriesComponent&#45;&gt;AppModule</title>
<path fill="none" stroke="black" d="M3168,-122.03C3168,-142.77 3168,-174 3168,-174 3168,-174 2020.01,-174 2020.01,-174"/>
<polygon fill="black" stroke="black" points="2020.01,-170.5 2010.01,-174 2020,-177.5 2020.01,-170.5"/>
</g>
<!-- CheckoutComponent -->
<g id="node6" class="node">
<title>CheckoutComponent</title>
<polygon fill="#ffffb3" stroke="black" points="3079.49,-122 2944.51,-122 2944.51,-86 3079.49,-86 3079.49,-122"/>
<text text-anchor="middle" x="3012" y="-99.8" font-family="Times,serif" font-size="14.00">CheckoutComponent</text>
</g>
<!-- CheckoutComponent&#45;&gt;AppModule -->
<g id="edge6" class="edge">
<title>CheckoutComponent&#45;&gt;AppModule</title>
<path fill="none" stroke="black" d="M3012,-122.31C3012,-142.15 3012,-171 3012,-171 3012,-171 2019.89,-171 2019.89,-171"/>
<polygon fill="black" stroke="black" points="2019.89,-167.5 2009.89,-171 2019.89,-174.5 2019.89,-167.5"/>
</g>
<!-- FooterComponent -->
<g id="node7" class="node">
<title>FooterComponent</title>
<polygon fill="#ffffb3" stroke="black" points="2926.88,-122 2809.12,-122 2809.12,-86 2926.88,-86 2926.88,-122"/>
<text text-anchor="middle" x="2868" y="-99.8" font-family="Times,serif" font-size="14.00">FooterComponent</text>
</g>
<!-- FooterComponent&#45;&gt;AppModule -->
<g id="edge7" class="edge">
<title>FooterComponent&#45;&gt;AppModule</title>
<path fill="none" stroke="black" d="M2868,-122.17C2868,-141.09 2868,-168 2868,-168 2868,-168 2019.9,-168 2019.9,-168"/>
<polygon fill="black" stroke="black" points="2019.9,-164.5 2009.9,-168 2019.9,-171.5 2019.9,-164.5"/>
</g>
<!-- ForgotPasswordComponent -->
<g id="node8" class="node">
<title>ForgotPasswordComponent</title>
<polygon fill="#ffffb3" stroke="black" points="2791.32,-122 2618.68,-122 2618.68,-86 2791.32,-86 2791.32,-122"/>
<text text-anchor="middle" x="2705" y="-99.8" font-family="Times,serif" font-size="14.00">ForgotPasswordComponent</text>
</g>
<!-- ForgotPasswordComponent&#45;&gt;AppModule -->
<g id="edge8" class="edge">
<title>ForgotPasswordComponent&#45;&gt;AppModule</title>
<path fill="none" stroke="black" d="M2705,-122.3C2705,-140.27 2705,-165 2705,-165 2705,-165 2019.74,-165 2019.74,-165"/>
<polygon fill="black" stroke="black" points="2019.74,-161.5 2009.74,-165 2019.74,-168.5 2019.74,-161.5"/>
</g>
<!-- HomeComponent -->
<g id="node9" class="node">
<title>HomeComponent</title>
<polygon fill="#ffffb3" stroke="black" points="2600.55,-122 2485.45,-122 2485.45,-86 2600.55,-86 2600.55,-122"/>
<text text-anchor="middle" x="2543" y="-99.8" font-family="Times,serif" font-size="14.00">HomeComponent</text>
</g>
<!-- HomeComponent&#45;&gt;AppModule -->
<g id="edge9" class="edge">
<title>HomeComponent&#45;&gt;AppModule</title>
<path fill="none" stroke="black" d="M2543,-122.02C2543,-139.37 2543,-163 2543,-163 2543,-163 2019.82,-163 2019.82,-163"/>
<polygon fill="black" stroke="black" points="2019.82,-159.5 2009.82,-163 2019.82,-166.5 2019.82,-159.5"/>
</g>
<!-- LoaderComponent -->
<g id="node10" class="node">
<title>LoaderComponent</title>
<polygon fill="#ffffb3" stroke="black" points="2467.47,-122 2346.53,-122 2346.53,-86 2467.47,-86 2467.47,-122"/>
<text text-anchor="middle" x="2407" y="-99.8" font-family="Times,serif" font-size="14.00">LoaderComponent</text>
</g>
<!-- LoaderComponent&#45;&gt;AppModule -->
<g id="edge10" class="edge">
<title>LoaderComponent&#45;&gt;AppModule</title>
<path fill="none" stroke="black" d="M2407,-122.03C2407,-138.4 2407,-160 2407,-160 2407,-160 2019.7,-160 2019.7,-160"/>
<polygon fill="black" stroke="black" points="2019.7,-156.5 2009.7,-160 2019.7,-163.5 2019.7,-156.5"/>
</g>
<!-- MainsliderComponent -->
<g id="node11" class="node">
<title>MainsliderComponent</title>
<polygon fill="#ffffb3" stroke="black" points="2328.98,-122 2187.02,-122 2187.02,-86 2328.98,-86 2328.98,-122"/>
<text text-anchor="middle" x="2258" y="-99.8" font-family="Times,serif" font-size="14.00">MainsliderComponent</text>
</g>
<!-- MainsliderComponent&#45;&gt;AppModule -->
<g id="edge11" class="edge">
<title>MainsliderComponent&#45;&gt;AppModule</title>
<path fill="none" stroke="black" d="M2258,-122.24C2258,-137.57 2258,-157 2258,-157 2258,-157 2019.86,-157 2019.86,-157"/>
<polygon fill="black" stroke="black" points="2019.86,-153.5 2009.86,-157 2019.86,-160.5 2019.86,-153.5"/>
</g>
<!-- MycartComponent -->
<g id="node12" class="node">
<title>MycartComponent</title>
<polygon fill="#ffffb3" stroke="black" points="2168.76,-122 2047.24,-122 2047.24,-86 2168.76,-86 2168.76,-122"/>
<text text-anchor="middle" x="2108" y="-99.8" font-family="Times,serif" font-size="14.00">MycartComponent</text>
</g>
<!-- MycartComponent&#45;&gt;AppModule -->
<g id="edge12" class="edge">
<title>MycartComponent&#45;&gt;AppModule</title>
<path fill="none" stroke="black" d="M2108,-122.05C2108,-136.37 2108,-154 2108,-154 2108,-154 2020,-154 2020,-154"/>
<polygon fill="black" stroke="black" points="2020,-150.5 2010,-154 2020,-157.5 2020,-150.5"/>
</g>
<!-- NavbarComponent -->
<g id="node13" class="node">
<title>NavbarComponent</title>
<polygon fill="#ffffb3" stroke="black" points="2029.03,-122 1906.97,-122 1906.97,-86 2029.03,-86 2029.03,-122"/>
<text text-anchor="middle" x="1968" y="-99.8" font-family="Times,serif" font-size="14.00">NavbarComponent</text>
</g>
<!-- NavbarComponent&#45;&gt;AppModule -->
<g id="edge13" class="edge">
<title>NavbarComponent&#45;&gt;AppModule</title>
<path fill="none" stroke="black" d="M1968,-122.11C1968,-122.11 1968,-140.99 1968,-140.99"/>
<polygon fill="black" stroke="black" points="1964.5,-140.99 1968,-150.99 1971.5,-140.99 1964.5,-140.99"/>
</g>
<!-- NotfoundComponent -->
<g id="node14" class="node">
<title>NotfoundComponent</title>
<polygon fill="#ffffb3" stroke="black" points="1888.49,-122 1753.51,-122 1753.51,-86 1888.49,-86 1888.49,-122"/>
<text text-anchor="middle" x="1821" y="-99.8" font-family="Times,serif" font-size="14.00">NotfoundComponent</text>
</g>
<!-- NotfoundComponent&#45;&gt;AppModule -->
<g id="edge14" class="edge">
<title>NotfoundComponent&#45;&gt;AppModule</title>
<path fill="none" stroke="black" d="M1821,-122.05C1821,-136.37 1821,-154 1821,-154 1821,-154 1916.27,-154 1916.27,-154"/>
<polygon fill="black" stroke="black" points="1916.27,-157.5 1926.27,-154 1916.27,-150.5 1916.27,-157.5"/>
</g>
<!-- ProductDeetailsComponent -->
<g id="node15" class="node">
<title>ProductDeetailsComponent</title>
<polygon fill="#ffffb3" stroke="black" points="1735.25,-122 1564.75,-122 1564.75,-86 1735.25,-86 1735.25,-122"/>
<text text-anchor="middle" x="1650" y="-99.8" font-family="Times,serif" font-size="14.00">ProductDeetailsComponent</text>
</g>
<!-- ProductDeetailsComponent&#45;&gt;AppModule -->
<g id="edge15" class="edge">
<title>ProductDeetailsComponent&#45;&gt;AppModule</title>
<path fill="none" stroke="black" d="M1650,-122.24C1650,-137.57 1650,-157 1650,-157 1650,-157 1916.1,-157 1916.1,-157"/>
<polygon fill="black" stroke="black" points="1916.1,-160.5 1926.1,-157 1916.1,-153.5 1916.1,-160.5"/>
</g>
<!-- ProductsComponent -->
<g id="node16" class="node">
<title>ProductsComponent</title>
<polygon fill="#ffffb3" stroke="black" points="1546.33,-122 1415.67,-122 1415.67,-86 1546.33,-86 1546.33,-122"/>
<text text-anchor="middle" x="1481" y="-99.8" font-family="Times,serif" font-size="14.00">ProductsComponent</text>
</g>
<!-- ProductsComponent&#45;&gt;AppModule -->
<g id="edge16" class="edge">
<title>ProductsComponent&#45;&gt;AppModule</title>
<path fill="none" stroke="black" d="M1481,-122.03C1481,-138.4 1481,-160 1481,-160 1481,-160 1916.06,-160 1916.06,-160"/>
<polygon fill="black" stroke="black" points="1916.06,-163.5 1926.06,-160 1916.06,-156.5 1916.06,-163.5"/>
</g>
<!-- ProfileComponent -->
<g id="node17" class="node">
<title>ProfileComponent</title>
<polygon fill="#ffffb3" stroke="black" points="1397.93,-122 1278.07,-122 1278.07,-86 1397.93,-86 1397.93,-122"/>
<text text-anchor="middle" x="1338" y="-99.8" font-family="Times,serif" font-size="14.00">ProfileComponent</text>
</g>
<!-- ProfileComponent&#45;&gt;AppModule -->
<g id="edge17" class="edge">
<title>ProfileComponent&#45;&gt;AppModule</title>
<path fill="none" stroke="black" d="M1338,-122.02C1338,-139.37 1338,-163 1338,-163 1338,-163 1916.18,-163 1916.18,-163"/>
<polygon fill="black" stroke="black" points="1916.18,-166.5 1926.18,-163 1916.18,-159.5 1916.18,-166.5"/>
</g>
<!-- ResetPasswordComponent -->
<g id="node18" class="node">
<title>ResetPasswordComponent</title>
<polygon fill="#ffffb3" stroke="black" points="1260.09,-122 1093.91,-122 1093.91,-86 1260.09,-86 1260.09,-122"/>
<text text-anchor="middle" x="1177" y="-99.8" font-family="Times,serif" font-size="14.00">ResetPasswordComponent</text>
</g>
<!-- ResetPasswordComponent&#45;&gt;AppModule -->
<g id="edge18" class="edge">
<title>ResetPasswordComponent&#45;&gt;AppModule</title>
<path fill="none" stroke="black" d="M1177,-122.3C1177,-140.27 1177,-165 1177,-165 1177,-165 1916.31,-165 1916.31,-165"/>
<polygon fill="black" stroke="black" points="1916.31,-168.5 1926.31,-165 1916.31,-161.5 1916.31,-168.5"/>
</g>
<!-- SearchPipe -->
<g id="node19" class="node">
<title>SearchPipe</title>
<polygon fill="#ffffb3" stroke="black" points="1075.47,-122 996.53,-122 996.53,-86 1075.47,-86 1075.47,-122"/>
<text text-anchor="middle" x="1036" y="-99.8" font-family="Times,serif" font-size="14.00">SearchPipe</text>
</g>
<!-- SearchPipe&#45;&gt;AppModule -->
<g id="edge19" class="edge">
<title>SearchPipe&#45;&gt;AppModule</title>
<path fill="none" stroke="black" d="M1036,-122.17C1036,-141.09 1036,-168 1036,-168 1036,-168 1916.14,-168 1916.14,-168"/>
<polygon fill="black" stroke="black" points="1916.14,-171.5 1926.14,-168 1916.14,-164.5 1916.14,-171.5"/>
</g>
<!-- SigninComponent -->
<g id="node20" class="node">
<title>SigninComponent</title>
<polygon fill="#ffffb3" stroke="black" points="978.9,-122 861.1,-122 861.1,-86 978.9,-86 978.9,-122"/>
<text text-anchor="middle" x="920" y="-99.8" font-family="Times,serif" font-size="14.00">SigninComponent</text>
</g>
<!-- SigninComponent&#45;&gt;AppModule -->
<g id="edge20" class="edge">
<title>SigninComponent&#45;&gt;AppModule</title>
<path fill="none" stroke="black" d="M920,-122.31C920,-142.15 920,-171 920,-171 920,-171 1916.27,-171 1916.27,-171"/>
<polygon fill="black" stroke="black" points="1916.27,-174.5 1926.27,-171 1916.27,-167.5 1916.27,-174.5"/>
</g>
<!-- SignupComponent -->
<g id="node21" class="node">
<title>SignupComponent</title>
<polygon fill="#ffffb3" stroke="black" points="843.51,-122 722.49,-122 722.49,-86 843.51,-86 843.51,-122"/>
<text text-anchor="middle" x="783" y="-99.8" font-family="Times,serif" font-size="14.00">SignupComponent</text>
</g>
<!-- SignupComponent&#45;&gt;AppModule -->
<g id="edge21" class="edge">
<title>SignupComponent&#45;&gt;AppModule</title>
<path fill="none" stroke="black" d="M783,-122.03C783,-142.77 783,-174 783,-174 783,-174 1916.17,-174 1916.17,-174"/>
<polygon fill="black" stroke="black" points="1916.17,-177.5 1926.17,-174 1916.17,-170.5 1916.17,-177.5"/>
</g>
<!-- WishlistComponent -->
<g id="node22" class="node">
<title>WishlistComponent</title>
<polygon fill="#ffffb3" stroke="black" points="704,-122 576,-122 576,-86 704,-86 704,-122"/>
<text text-anchor="middle" x="640" y="-99.8" font-family="Times,serif" font-size="14.00">WishlistComponent</text>
</g>
<!-- WishlistComponent&#45;&gt;AppModule -->
<g id="edge22" class="edge">
<title>WishlistComponent&#45;&gt;AppModule</title>
<path fill="none" stroke="black" d="M640,-122.17C640,-143.5 640,-176 640,-176 640,-176 1916.06,-176 1916.06,-176"/>
<polygon fill="black" stroke="black" points="1916.06,-179.5 1926.06,-176 1916.06,-172.5 1916.06,-179.5"/>
</g>
<!-- AppComponent  -->
<g id="node25" class="node">
<title>AppComponent </title>
<polygon fill="#80b1d3" stroke="black" points="2022.44,-252 1913.56,-252 1913.56,-216 2022.44,-216 2022.44,-252"/>
<text text-anchor="middle" x="1968" y="-229.8" font-family="Times,serif" font-size="14.00">AppComponent </text>
</g>
<!-- AppModule&#45;&gt;AppComponent  -->
<g id="edge24" class="edge">
<title>AppModule&#45;&gt;AppComponent </title>
<path fill="none" stroke="black" stroke-dasharray="1,5" d="M1968,-187.11C1968,-187.11 1968,-205.99 1968,-205.99"/>
<polygon fill="black" stroke="black" points="1964.5,-205.99 1968,-215.99 1971.5,-205.99 1964.5,-205.99"/>
</g>
<!-- AppRoutingModule -->
<g id="node24" class="node">
<title>AppRoutingModule</title>
<polygon fill="#8dd3c7" stroke="black" points="552.27,-122 549.27,-126 528.27,-126 525.27,-122 423.73,-122 423.73,-86 552.27,-86 552.27,-122"/>
<text text-anchor="middle" x="488" y="-99.8" font-family="Times,serif" font-size="14.00">AppRoutingModule</text>
</g>
<!-- AppRoutingModule&#45;&gt;AppModule -->
<g id="edge23" class="edge">
<title>AppRoutingModule&#45;&gt;AppModule</title>
<path fill="none" stroke="black" d="M488,-122.16C488,-144.35 488,-179 488,-179 488,-179 1916.09,-179 1916.09,-179"/>
<polygon fill="black" stroke="black" points="1916.09,-182.5 1926.09,-179 1916.09,-175.5 1916.09,-182.5"/>
</g>
<!-- AddHeaderInterceptor -->
<g id="node26" class="node">
<title>AddHeaderInterceptor</title>
<ellipse fill="#fdb462" stroke="black" cx="302" cy="-104" rx="97.79" ry="18"/>
<text text-anchor="middle" x="302" y="-99.8" font-family="Times,serif" font-size="14.00">AddHeaderInterceptor</text>
</g>
<!-- AddHeaderInterceptor&#45;&gt;AppModule -->
<g id="edge25" class="edge">
<title>AddHeaderInterceptor&#45;&gt;AppModule</title>
<path fill="none" stroke="black" d="M302,-122.09C302,-145.13 302,-182 302,-182 302,-182 1915.98,-182 1915.98,-182"/>
<polygon fill="black" stroke="black" points="1915.98,-185.5 1925.98,-182 1915.98,-178.5 1915.98,-185.5"/>
</g>
<!-- LoaderInterceptor -->
<g id="node27" class="node">
<title>LoaderInterceptor</title>
<ellipse fill="#fdb462" stroke="black" cx="105" cy="-104" rx="80.98" ry="18"/>
<text text-anchor="middle" x="105" y="-99.8" font-family="Times,serif" font-size="14.00">LoaderInterceptor</text>
</g>
<!-- LoaderInterceptor&#45;&gt;AppModule -->
<g id="edge26" class="edge">
<title>LoaderInterceptor&#45;&gt;AppModule</title>
<path fill="none" stroke="black" d="M105,-122.38C105,-146.28 105,-185 105,-185 105,-185 1916.03,-185 1916.03,-185"/>
<polygon fill="black" stroke="black" points="1916.03,-188.5 1926.03,-185 1916.03,-181.5 1916.03,-188.5"/>
</g>
</g>
</svg>
